<svg width="11" height="18" viewBox="0 0 11 18" xmlns="http://www.w3.org/2000/svg"><title>93F2365E-F28E-481D-9B99-A05CA36FB34C</title><path d="M0 12.797V5.613c0-1.555 1.436-1.898 2.244-1.476v-1.9C2.244 1.47 2.667 1 3.5 1c.953 0 1 .5 1 .5 0-1.253.306-1.5 1-1.5s1 .33 1 1.5C6.5 1 9 .953 9 2.372v7.135V7.5c0-.249.012-.5.5-.5.785 0 1.5.647 1.5 2v3.5c0 5.002-3.446 5.5-6 5.5-3.193-.001-4.997-.954-5-5.203zm1.5-7.922c-.5 0-.5.627-.5.765v7.123c.006 3.4 1.14 4.235 4 4.237 2.237-.002 4.998-.157 5-4.53V9c0-.767-.156-1-.5-1-.492 0-.5.47-.5.653v2.627s-1-.358-1-.647V2.364c0-.18-.295-.305-.5-.305-.205 0-.5-.002-.5.179v6.579c0 .291-.175.563-.5.563S6 9.108 6 8.817V1.5c-.001-.183-.087-.472-.5-.472-.413 0-.5.289-.5.472V9c0 .291-.236.38-.498.38S4 9.498 4 9.206V2.5c0-.18-.183-.5-.5-.5s-.5.32-.5.5v6.88c0 .29.049.564-.277.564h-.385C2.012 9.944 2 9.67 2 9.38V5.348c0-.473-.5-.473-.5-.473z" fill="#5C5C5C" fill-rule="evenodd" fill-opacity=".7"/></svg>